<svg width="344" height="177" viewBox="0 0 344 177" fill="none" xmlns="http://www.w3.org/2000/svg">
<g opacity="0.7" clip-path="url(#clip0_5109_86479)">
<rect x="27.5" y="17.5" width="288" height="181" rx="21.5" fill="black" fill-opacity="0.8" stroke="url(#paint0_linear_5109_86479)"/>
<g clip-path="url(#clip1_5109_86479)">
<rect x="226" y="50" width="80" height="50" rx="7" fill="white" fill-opacity="0.1"/>
<rect x="232" y="87" width="32" height="7" rx="3.5" fill="#658DF2"/>
</g>
<rect x="226" y="107" width="80" height="54" rx="7" fill="white" fill-opacity="0.1"/>
<rect x="232" y="148" width="32" height="7" rx="3.5" fill="#658DF2"/>
<g clip-path="url(#clip2_5109_86479)">
<rect x="226" y="168" width="80" height="50" rx="7" fill="white" fill-opacity="0.1"/>
</g>
<g clip-path="url(#clip3_5109_86479)">
<rect x="38" y="50" width="180" height="173" rx="8" fill="white" fill-opacity="0.1"/>
<rect x="47" y="162" width="50" height="7" rx="3.5" fill="#658DF2"/>
</g>
<rect x="274" y="30" width="32" height="10" rx="5" fill="white" fill-opacity="0.4"/>
<rect x="141" y="30" width="62" height="10" rx="5" fill="white" fill-opacity="0.4"/>
<rect x="38.0703" y="27.5898" width="55.8596" height="14.0498" rx="7.0249" fill="black" fill-opacity="0.4"/>
<ellipse cx="45.0958" cy="34.6149" rx="4.21491" ry="4.21496" fill="black" fill-opacity="0.6"/>
<path d="M54.3371 35.0689L52.0779 31.6464H53.1148L54.7418 34.2681L56.4193 31.6464H57.4056L55.1464 35.0689V37.6147H54.3371V35.0689ZM57.574 35.6169C57.574 35.8192 57.6049 36.0075 57.6667 36.1817C57.7285 36.3503 57.8156 36.4964 57.928 36.62C58.0404 36.738 58.1781 36.8336 58.3411 36.9066C58.5041 36.9741 58.6867 37.0078 58.889 37.0078C59.0913 37.0078 59.274 36.9741 59.437 36.9066C59.5999 36.8336 59.7376 36.738 59.85 36.62C59.9624 36.4964 60.0495 36.3503 60.1114 36.1817C60.1732 36.0075 60.2041 35.8192 60.2041 35.6169C60.2041 35.4146 60.1732 35.2291 60.1114 35.0605C60.0495 34.8863 59.9624 34.7402 59.85 34.6222C59.7376 34.4985 59.5999 34.403 59.437 34.3355C59.274 34.2625 59.0913 34.226 58.889 34.226C58.6867 34.226 58.5041 34.2625 58.3411 34.3355C58.1781 34.403 58.0404 34.4985 57.928 34.6222C57.8156 34.7402 57.7285 34.8863 57.6667 35.0605C57.6049 35.2291 57.574 35.4146 57.574 35.6169ZM56.7647 35.6169C56.7647 35.3246 56.8181 35.0521 56.9249 34.7992C57.0373 34.5463 57.189 34.3243 57.3801 34.1332C57.5712 33.9422 57.796 33.7932 58.0545 33.6865C58.313 33.5741 58.5912 33.5179 58.889 33.5179C59.1869 33.5179 59.4651 33.5741 59.7236 33.6865C59.9821 33.7932 60.2069 33.9422 60.398 34.1332C60.589 34.3243 60.738 34.5463 60.8447 34.7992C60.9571 35.0521 61.0133 35.3246 61.0133 35.6169C61.0133 35.9091 60.9571 36.1845 60.8447 36.443C60.738 36.6959 60.589 36.9179 60.398 37.109C60.2069 37.2944 59.9821 37.4433 59.7236 37.5557C59.4651 37.6625 59.1869 37.7159 58.889 37.7159C58.5912 37.7159 58.313 37.6625 58.0545 37.5557C57.796 37.4433 57.5712 37.2944 57.3801 37.109C57.189 36.9179 57.0373 36.6959 56.9249 36.443C56.8181 36.1845 56.7647 35.9091 56.7647 35.6169ZM65.5043 37.6147H64.7456V36.9994H64.7288C64.6332 37.2129 64.4675 37.3871 64.2314 37.522C63.9954 37.6513 63.7228 37.7159 63.4137 37.7159C63.217 37.7159 63.0316 37.685 62.8574 37.6232C62.6832 37.567 62.5286 37.4771 62.3937 37.3534C62.2645 37.2298 62.1605 37.0724 62.0818 36.8814C62.0031 36.6847 61.9638 36.4542 61.9638 36.1901V33.619H62.7225V35.9794C62.7225 36.1648 62.7478 36.325 62.7984 36.4599C62.8489 36.5891 62.9164 36.6959 63.0007 36.7802C63.085 36.8589 63.1805 36.9179 63.2873 36.9572C63.3997 36.9909 63.5149 37.0078 63.6329 37.0078C63.7903 37.0078 63.9364 36.9825 64.0713 36.9319C64.2061 36.8814 64.3242 36.8027 64.4253 36.6959C64.5265 36.5835 64.6051 36.443 64.6613 36.2744C64.7175 36.1058 64.7456 35.9063 64.7456 35.6759V33.619H65.5043V37.6147ZM66.648 33.619H67.4066V34.2344H67.4235C67.4741 34.1276 67.5415 34.0321 67.6258 33.9478C67.7101 33.8579 67.8028 33.782 67.904 33.7202C68.0108 33.6584 68.126 33.6106 68.2496 33.5769C68.3733 33.5375 68.4969 33.5179 68.6205 33.5179C68.7442 33.5179 68.8566 33.5347 68.9577 33.5684L68.924 34.3861C68.8622 34.3693 68.8004 34.3552 68.7385 34.344C68.6767 34.3327 68.6149 34.3271 68.5531 34.3271C68.1822 34.3271 67.8984 34.4311 67.7017 34.639C67.505 34.847 67.4066 35.1701 67.4066 35.6085V37.6147H66.648V33.619ZM72.308 31.6464H73.1173V36.8561H75.857V37.6147H72.308V31.6464ZM77.1009 35.6169C77.1009 35.8192 77.1318 36.0075 77.1936 36.1817C77.2554 36.3503 77.3425 36.4964 77.4549 36.62C77.5673 36.738 77.705 36.8336 77.868 36.9066C78.0309 36.9741 78.2136 37.0078 78.4159 37.0078C78.6182 37.0078 78.8009 36.9741 78.9638 36.9066C79.1268 36.8336 79.2645 36.738 79.3769 36.62C79.4893 36.4964 79.5764 36.3503 79.6382 36.1817C79.7001 36.0075 79.731 35.8192 79.731 35.6169C79.731 35.4146 79.7001 35.2291 79.6382 35.0605C79.5764 34.8863 79.4893 34.7402 79.3769 34.6222C79.2645 34.4985 79.1268 34.403 78.9638 34.3355C78.8009 34.2625 78.6182 34.226 78.4159 34.226C78.2136 34.226 78.0309 34.2625 77.868 34.3355C77.705 34.403 77.5673 34.4985 77.4549 34.6222C77.3425 34.7402 77.2554 34.8863 77.1936 35.0605C77.1318 35.2291 77.1009 35.4146 77.1009 35.6169ZM76.2916 35.6169C76.2916 35.3246 76.345 35.0521 76.4518 34.7992C76.5642 34.5463 76.7159 34.3243 76.907 34.1332C77.098 33.9422 77.3228 33.7932 77.5814 33.6865C77.8399 33.5741 78.1181 33.5179 78.4159 33.5179C78.7138 33.5179 78.9919 33.5741 79.2505 33.6865C79.509 33.7932 79.7338 33.9422 79.9248 34.1332C80.1159 34.3243 80.2648 34.5463 80.3716 34.7992C80.484 35.0521 80.5402 35.3246 80.5402 35.6169C80.5402 35.9091 80.484 36.1845 80.3716 36.443C80.2648 36.6959 80.1159 36.9179 79.9248 37.109C79.7338 37.2944 79.509 37.4433 79.2505 37.5557C78.9919 37.6625 78.7138 37.7159 78.4159 37.7159C78.1181 37.7159 77.8399 37.6625 77.5814 37.5557C77.3228 37.4433 77.098 37.2944 76.907 37.109C76.7159 36.9179 76.5642 36.6959 76.4518 36.443C76.345 36.1845 76.2916 35.9091 76.2916 35.6169ZM85.4948 37.581C85.4948 37.8845 85.4415 38.1599 85.3347 38.4071C85.2335 38.66 85.0874 38.8764 84.8963 39.0562C84.7053 39.2417 84.4748 39.385 84.2051 39.4862C83.9353 39.5873 83.6375 39.6379 83.3115 39.6379C82.9294 39.6379 82.5781 39.5845 82.2578 39.4777C81.9431 39.371 81.6424 39.1855 81.3558 38.9214L81.87 38.2807C82.0667 38.4943 82.2803 38.6544 82.5107 38.7612C82.7411 38.8736 83.0024 38.9298 83.2947 38.9298C83.5757 38.9298 83.8089 38.8876 83.9943 38.8034C84.1798 38.7247 84.3259 38.6207 84.4327 38.4914C84.5451 38.3622 84.6238 38.2133 84.6687 38.0447C84.7137 37.8817 84.7362 37.7159 84.7362 37.5473V36.9572H84.7109C84.5648 37.1989 84.3653 37.3787 84.1124 37.4967C83.8651 37.6091 83.6038 37.6653 83.3284 37.6653C83.0361 37.6653 82.7636 37.6147 82.5107 37.5136C82.2634 37.4068 82.0499 37.2635 81.87 37.0837C81.6902 36.8982 81.5497 36.6818 81.4485 36.4346C81.3474 36.1817 81.2968 35.9091 81.2968 35.6169C81.2968 35.3246 81.3446 35.0521 81.4401 34.7992C81.5356 34.5407 81.6705 34.3159 81.8447 34.1248C82.0246 33.9337 82.2381 33.7848 82.4854 33.678C82.7383 33.5712 83.0193 33.5179 83.3284 33.5179C83.5981 33.5179 83.8595 33.5769 84.1124 33.6949C84.3709 33.8129 84.5732 33.9787 84.7193 34.1922H84.7362V33.619H85.4948V37.581ZM83.4211 34.226C83.2188 34.226 83.0361 34.2625 82.8732 34.3355C82.7102 34.403 82.5725 34.4985 82.4601 34.6222C82.3477 34.7402 82.2606 34.8863 82.1988 35.0605C82.137 35.2291 82.1061 35.4146 82.1061 35.6169C82.1061 36.0215 82.2241 36.3475 82.4601 36.5947C82.6961 36.8364 83.0165 36.9572 83.4211 36.9572C83.8257 36.9572 84.1461 36.8364 84.3821 36.5947C84.6181 36.3475 84.7362 36.0215 84.7362 35.6169C84.7362 35.4146 84.7053 35.2291 84.6434 35.0605C84.5816 34.8863 84.4945 34.7402 84.3821 34.6222C84.2697 34.4985 84.132 34.403 83.969 34.3355C83.8061 34.2625 83.6234 34.226 83.4211 34.226ZM87.2594 35.6169C87.2594 35.8192 87.2904 36.0075 87.3522 36.1817C87.414 36.3503 87.5011 36.4964 87.6135 36.62C87.7259 36.738 87.8636 36.8336 88.0266 36.9066C88.1895 36.9741 88.3722 37.0078 88.5745 37.0078C88.7768 37.0078 88.9595 36.9741 89.1224 36.9066C89.2854 36.8336 89.4231 36.738 89.5355 36.62C89.6479 36.4964 89.735 36.3503 89.7968 36.1817C89.8586 36.0075 89.8895 35.8192 89.8895 35.6169C89.8895 35.4146 89.8586 35.2291 89.7968 35.0605C89.735 34.8863 89.6479 34.7402 89.5355 34.6222C89.4231 34.4985 89.2854 34.403 89.1224 34.3355C88.9595 34.2625 88.7768 34.226 88.5745 34.226C88.3722 34.226 88.1895 34.2625 88.0266 34.3355C87.8636 34.403 87.7259 34.4985 87.6135 34.6222C87.5011 34.7402 87.414 34.8863 87.3522 35.0605C87.2904 35.2291 87.2594 35.4146 87.2594 35.6169ZM86.4502 35.6169C86.4502 35.3246 86.5036 35.0521 86.6103 34.7992C86.7227 34.5463 86.8745 34.3243 87.0656 34.1332C87.2566 33.9422 87.4814 33.7932 87.7399 33.6865C87.9985 33.5741 88.2766 33.5179 88.5745 33.5179C88.8723 33.5179 89.1505 33.5741 89.409 33.6865C89.6676 33.7932 89.8924 33.9422 90.0834 34.1332C90.2745 34.3243 90.4234 34.5463 90.5302 34.7992C90.6426 35.0521 90.6988 35.3246 90.6988 35.6169C90.6988 35.9091 90.6426 36.1845 90.5302 36.443C90.4234 36.6959 90.2745 36.9179 90.0834 37.109C89.8924 37.2944 89.6676 37.4433 89.409 37.5557C89.1505 37.6625 88.8723 37.7159 88.5745 37.7159C88.2766 37.7159 87.9985 37.6625 87.7399 37.5557C87.4814 37.4433 87.2566 37.2944 87.0656 37.109C86.8745 36.9179 86.7227 36.6959 86.6103 36.443C86.5036 36.1845 86.4502 35.9091 86.4502 35.6169Z" fill="#DFDFDF"/>
</g>
<defs>
<linearGradient id="paint0_linear_5109_86479" x1="171.5" y1="17" x2="171.5" y2="199" gradientUnits="userSpaceOnUse">
<stop stop-color="#5C5C5C"/>
<stop offset="1" stop-opacity="0"/>
</linearGradient>
<clipPath id="clip0_5109_86479">
<rect width="344" height="177" fill="white"/>
</clipPath>
<clipPath id="clip1_5109_86479">
<rect x="226" y="50" width="80" height="50" rx="7" fill="white"/>
</clipPath>
<clipPath id="clip2_5109_86479">
<rect x="226" y="168" width="80" height="50" rx="7" fill="white"/>
</clipPath>
<clipPath id="clip3_5109_86479">
<rect x="38" y="50" width="180" height="173" rx="8" fill="white"/>
</clipPath>
</defs>
</svg>
