<svg width="344" height="177" viewBox="0 0 344 177" fill="none" xmlns="http://www.w3.org/2000/svg">
<g opacity="0.7" clip-path="url(#clip0_5109_86356)">
<rect x="144.507" y="-8.49319" width="247.986" height="158.459" rx="14.4332" fill="black" fill-opacity="0.3"/>
<path d="M177.335 27.9199V17.2971H174.059V15.8375H182.168V17.2971H178.941V27.9199H177.335ZM183.522 27.9199V15.6428H185.03V20.8813L184.754 20.7353C184.971 20.1839 185.317 19.7568 185.792 19.4541C186.279 19.1405 186.847 18.9838 187.495 18.9838C188.122 18.9838 188.679 19.1243 189.166 19.4054C189.663 19.6866 190.052 20.0758 190.333 20.5731C190.625 21.0705 190.771 21.6327 190.771 22.2598V27.9199H189.247V22.7464C189.247 22.2598 189.155 21.849 188.971 21.5138C188.798 21.1786 188.555 20.9191 188.241 20.7353C187.928 20.5407 187.566 20.4434 187.155 20.4434C186.755 20.4434 186.392 20.5407 186.068 20.7353C185.744 20.9191 185.49 21.184 185.306 21.53C185.122 21.8652 185.03 22.2706 185.03 22.7464V27.9199H183.522ZM196.952 28.1145C196.108 28.1145 195.357 27.9145 194.697 27.5145C194.038 27.1144 193.519 26.5684 193.14 25.8764C192.762 25.1737 192.573 24.3898 192.573 23.5248C192.573 22.6491 192.757 21.8706 193.124 21.1894C193.503 20.5083 194.011 19.9731 194.649 19.5838C195.297 19.1838 196.022 18.9838 196.822 18.9838C197.471 18.9838 198.044 19.1027 198.541 19.3406C199.049 19.5676 199.476 19.8812 199.822 20.2812C200.179 20.6704 200.449 21.1191 200.633 21.6273C200.828 22.1247 200.925 22.6436 200.925 23.1842C200.925 23.3032 200.914 23.4383 200.893 23.5897C200.882 23.7303 200.866 23.8654 200.844 23.9951H193.676V22.6977H199.968L199.255 23.2816C199.352 22.7193 199.298 22.2166 199.092 21.7733C198.887 21.33 198.584 20.9786 198.184 20.7191C197.784 20.4596 197.33 20.3299 196.822 20.3299C196.314 20.3299 195.849 20.4596 195.427 20.7191C195.006 20.9786 194.676 21.3516 194.438 21.8381C194.211 22.3139 194.119 22.8815 194.162 23.541C194.119 24.179 194.216 24.7412 194.454 25.2277C194.703 25.7035 195.049 26.0765 195.492 26.3468C195.946 26.6063 196.438 26.736 196.968 26.736C197.552 26.736 198.044 26.6009 198.444 26.3306C198.844 26.0603 199.168 25.7143 199.417 25.2926L200.682 25.9413C200.509 26.3414 200.239 26.709 199.871 27.0441C199.514 27.3685 199.087 27.628 198.59 27.8226C198.103 28.0172 197.557 28.1145 196.952 28.1145ZM202.892 27.9199V19.1784H204.368V20.9624L204.157 20.6867C204.373 20.1353 204.719 19.7136 205.195 19.4217C205.67 19.1297 206.206 18.9838 206.8 18.9838C207.481 18.9838 208.092 19.173 208.633 19.5514C209.184 19.9298 209.563 20.4272 209.768 21.0435L209.346 21.0597C209.574 20.3785 209.957 19.8649 210.498 19.519C211.039 19.1622 211.639 18.9838 212.298 18.9838C212.904 18.9838 213.45 19.1243 213.936 19.4054C214.434 19.6866 214.828 20.0758 215.12 20.5731C215.412 21.0705 215.558 21.6327 215.558 22.2598V27.9199H214.033V22.7464C214.033 22.2598 213.947 21.849 213.774 21.5138C213.601 21.1786 213.363 20.9191 213.06 20.7353C212.768 20.5407 212.423 20.4434 212.022 20.4434C211.633 20.4434 211.282 20.5407 210.968 20.7353C210.666 20.9191 210.422 21.184 210.238 21.53C210.065 21.8652 209.979 22.2706 209.979 22.7464V27.9199H208.454V22.7464C208.454 22.2598 208.368 21.849 208.195 21.5138C208.022 21.1786 207.784 20.9191 207.481 20.7353C207.189 20.5407 206.843 20.4434 206.443 20.4434C206.054 20.4434 205.703 20.5407 205.389 20.7353C205.087 20.9191 204.843 21.184 204.659 21.53C204.486 21.8652 204.4 22.2706 204.4 22.7464V27.9199H202.892ZM221.722 28.1145C220.879 28.1145 220.127 27.9145 219.468 27.5145C218.808 27.1144 218.289 26.5684 217.911 25.8764C217.533 25.1737 217.343 24.3898 217.343 23.5248C217.343 22.6491 217.527 21.8706 217.895 21.1894C218.273 20.5083 218.781 19.9731 219.419 19.5838C220.068 19.1838 220.792 18.9838 221.593 18.9838C222.241 18.9838 222.814 19.1027 223.312 19.3406C223.82 19.5676 224.247 19.8812 224.593 20.2812C224.95 20.6704 225.22 21.1191 225.404 21.6273C225.598 22.1247 225.696 22.6436 225.696 23.1842C225.696 23.3032 225.685 23.4383 225.663 23.5897C225.652 23.7303 225.636 23.8654 225.615 23.9951H218.446V22.6977H224.739L224.025 23.2816C224.123 22.7193 224.068 22.2166 223.863 21.7733C223.658 21.33 223.355 20.9786 222.955 20.7191C222.555 20.4596 222.101 20.3299 221.593 20.3299C221.084 20.3299 220.619 20.4596 220.198 20.7191C219.776 20.9786 219.446 21.3516 219.208 21.8381C218.981 22.3139 218.889 22.8815 218.933 23.541C218.889 24.179 218.987 24.7412 219.225 25.2277C219.473 25.7035 219.819 26.0765 220.263 26.3468C220.717 26.6063 221.209 26.736 221.738 26.736C222.322 26.736 222.814 26.6009 223.214 26.3306C223.614 26.0603 223.939 25.7143 224.187 25.2926L225.452 25.9413C225.279 26.3414 225.009 26.709 224.642 27.0441C224.285 27.3685 223.858 27.628 223.36 27.8226C222.874 28.0172 222.328 28.1145 221.722 28.1145Z" fill="#ADADAD"/>
<g clip-path="url(#clip1_5109_86356)">
<path d="M189.295 68.8767C189.426 68.8767 189.554 68.9245 189.653 69.0112C189.752 69.0978 189.817 69.2176 189.834 69.3481L189.839 69.4222V70.5119C189.839 70.6499 189.787 70.7826 189.692 70.8833C189.598 70.9841 189.469 71.0453 189.331 71.0546C189.194 71.0639 189.058 71.0206 188.951 70.9335C188.844 70.8464 188.774 70.7219 188.755 70.5853L188.75 70.5119V69.4222C188.75 69.2777 188.807 69.1391 188.909 69.037C189.011 68.9348 189.15 68.8774 189.295 68.8774V68.8767ZM193.669 67.3715L194.439 68.1415C194.491 68.1917 194.533 68.2518 194.561 68.3183C194.59 68.3848 194.605 68.4562 194.606 68.5286C194.606 68.6009 194.593 68.6727 194.565 68.7397C194.538 68.8066 194.497 68.8675 194.446 68.9186C194.395 68.9698 194.334 69.0103 194.267 69.0377C194.2 69.0652 194.129 69.079 194.056 69.0784C193.984 69.0778 193.913 69.0628 193.846 69.0343C193.78 69.0058 193.719 68.9643 193.669 68.9123L192.899 68.1422C192.8 68.0395 192.745 67.9019 192.746 67.7591C192.747 67.6162 192.804 67.4795 192.905 67.3785C193.006 67.2774 193.143 67.2201 193.286 67.2187C193.429 67.2174 193.566 67.2723 193.669 67.3715ZM185.691 67.3715C185.793 67.4736 185.85 67.6121 185.85 67.7565C185.85 67.9009 185.793 68.0394 185.691 68.1415L184.92 68.913C184.817 69.0092 184.68 69.0616 184.539 69.0591C184.398 69.0566 184.263 68.9995 184.163 68.8996C184.063 68.7998 184.006 68.6651 184.004 68.524C184.001 68.3829 184.054 68.2462 184.15 68.143L184.92 67.3722C185.022 67.2702 185.161 67.2129 185.305 67.2129C185.449 67.2129 185.588 67.2702 185.69 67.3722L185.691 67.3715ZM189.297 59.7708C190.362 59.7708 191.383 60.1936 192.135 60.9463C192.888 61.699 193.311 62.7199 193.311 63.7843C193.311 64.8488 192.888 65.8697 192.135 66.6224C191.383 67.3751 190.362 67.7979 189.297 67.7979C188.233 67.7979 187.212 67.3751 186.459 66.6224C185.707 65.8697 185.284 64.8488 185.284 63.7843C185.284 62.7199 185.707 61.699 186.459 60.9463C187.212 60.1936 188.233 59.7708 189.297 59.7708ZM189.297 60.8604C188.913 60.8604 188.533 60.9361 188.178 61.083C187.824 61.2299 187.501 61.4453 187.23 61.7168C186.958 61.9883 186.743 62.3107 186.596 62.6654C186.449 63.0201 186.374 63.4004 186.374 63.7843C186.374 64.1683 186.449 64.5485 186.596 64.9033C186.743 65.258 186.958 65.5803 187.23 65.8519C187.501 66.1234 187.824 66.3387 188.178 66.4857C188.533 66.6326 188.913 66.7083 189.297 66.7083C190.073 66.7083 190.817 66.4002 191.365 65.8519C191.913 65.3035 192.221 64.5598 192.221 63.7843C192.221 63.0089 191.913 62.2652 191.365 61.7168C190.817 61.1685 190.073 60.8604 189.297 60.8604ZM196.017 63.2526C196.155 63.2526 196.288 63.3051 196.389 63.3993C196.49 63.4935 196.551 63.6226 196.56 63.7603C196.57 63.898 196.527 64.0342 196.439 64.1412C196.352 64.2483 196.228 64.3183 196.091 64.3372L196.017 64.3422H194.927C194.789 64.3422 194.656 64.2898 194.556 64.1955C194.455 64.1013 194.393 63.9723 194.384 63.8345C194.375 63.6968 194.418 63.5607 194.505 63.4536C194.592 63.3465 194.716 63.2765 194.853 63.2577L194.927 63.2526H196.017ZM183.668 63.2315C183.807 63.2301 183.941 63.2819 184.043 63.3763C184.145 63.4707 184.207 63.6005 184.217 63.7392C184.226 63.8779 184.182 64.015 184.094 64.1224C184.006 64.2298 183.88 64.2993 183.742 64.3168L183.668 64.3212H182.578C182.44 64.3211 182.307 64.2687 182.206 64.1745C182.105 64.0802 182.044 63.9512 182.034 63.8135C182.025 63.6758 182.068 63.5396 182.155 63.4325C182.243 63.3254 182.367 63.2554 182.504 63.2366L182.578 63.2315H183.668ZM184.859 58.6041L184.92 58.6564L185.69 59.4264C185.788 59.5235 185.845 59.654 185.85 59.7917C185.856 59.9294 185.809 60.0639 185.719 60.1684C185.629 60.2728 185.503 60.3393 185.366 60.3545C185.229 60.3696 185.091 60.3324 184.981 60.2502L184.92 60.1972L184.15 59.4272C184.052 59.3301 183.995 59.1996 183.989 59.0619C183.984 58.9242 184.031 58.7897 184.121 58.6852C184.211 58.5808 184.337 58.5143 184.474 58.4991C184.611 58.4839 184.748 58.5212 184.859 58.6034V58.6041ZM194.439 58.6564C194.532 58.7487 194.588 58.8711 194.598 59.0014C194.607 59.1317 194.57 59.2611 194.492 59.3661L194.439 59.4272L193.669 60.1972C193.572 60.2938 193.442 60.3501 193.305 60.3549C193.168 60.3597 193.034 60.3127 192.93 60.2232C192.826 60.1337 192.76 60.0083 192.744 59.8721C192.729 59.7358 192.765 59.5988 192.846 59.4882L192.898 59.4272L193.668 58.6564C193.719 58.6058 193.779 58.5656 193.845 58.5382C193.911 58.5108 193.982 58.4967 194.054 58.4967C194.125 58.4967 194.196 58.5108 194.262 58.5382C194.328 58.5656 194.389 58.6058 194.439 58.6564ZM189.297 56.5127C189.429 56.5127 189.556 56.5604 189.656 56.6469C189.755 56.7334 189.819 56.853 189.837 56.9834L189.842 57.0575V58.1472C189.842 58.2852 189.789 58.4179 189.695 58.5186C189.601 58.6194 189.472 58.6806 189.334 58.6899C189.197 58.6992 189.06 58.6559 188.953 58.5688C188.846 58.4817 188.776 58.3572 188.758 58.2205L188.753 58.1464V57.0568C188.753 56.9123 188.81 56.7737 188.912 56.6715C189.014 56.5694 189.153 56.512 189.297 56.512V56.5127Z" fill="#EAEAEA"/>
<path d="M203.588 68.2859V59.5077H205.179V66.9529H209.045V68.2859H203.588ZM210.356 68.2859V61.7022H211.908V68.2859H210.356ZM211.137 60.7678C210.891 60.7678 210.679 60.6864 210.502 60.5235C210.325 60.3578 210.236 60.1592 210.236 59.9277C210.236 59.6934 210.325 59.4948 210.502 59.3319C210.679 59.1662 210.891 59.0833 211.137 59.0833C211.385 59.0833 211.597 59.1662 211.771 59.3319C211.948 59.4948 212.037 59.6934 212.037 59.9277C212.037 60.1592 211.948 60.3578 211.771 60.5235C211.597 60.6864 211.385 60.7678 211.137 60.7678ZM216.367 70.8919C215.81 70.8919 215.331 70.8162 214.931 70.6648C214.531 70.5162 214.209 70.3161 213.967 70.0647C213.724 69.8132 213.555 69.5346 213.461 69.2289L214.858 68.8902C214.921 69.0188 215.012 69.146 215.132 69.2717C215.252 69.4003 215.414 69.506 215.617 69.5889C215.822 69.6746 216.081 69.7175 216.393 69.7175C216.833 69.7175 217.197 69.6103 217.486 69.396C217.774 69.1846 217.918 68.836 217.918 68.3502V67.1029H217.841C217.761 67.2629 217.644 67.4272 217.49 67.5958C217.338 67.7644 217.137 67.9058 216.885 68.0201C216.637 68.1344 216.324 68.1916 215.947 68.1916C215.441 68.1916 214.982 68.073 214.571 67.8358C214.162 67.5958 213.837 67.2386 213.594 66.7643C213.354 66.2871 213.234 65.6899 213.234 64.9726C213.234 64.2497 213.354 63.6396 213.594 63.1424C213.837 62.6423 214.164 62.2637 214.575 62.0065C214.987 61.7465 215.445 61.6165 215.951 61.6165C216.337 61.6165 216.654 61.6822 216.903 61.8137C217.154 61.9423 217.354 62.098 217.503 62.2809C217.651 62.4609 217.764 62.6309 217.841 62.7909H217.927V61.7022H219.457V68.393C219.457 68.956 219.323 69.4217 219.054 69.7904C218.786 70.159 218.419 70.4347 217.953 70.6176C217.487 70.8005 216.958 70.8919 216.367 70.8919ZM216.38 66.9743C216.708 66.9743 216.988 66.8943 217.22 66.7343C217.451 66.5742 217.627 66.3442 217.747 66.0442C217.867 65.7441 217.927 65.3841 217.927 64.9641C217.927 64.5497 217.867 64.1868 217.747 63.8753C217.63 63.5639 217.456 63.3224 217.224 63.151C216.995 62.9767 216.714 62.8895 216.38 62.8895C216.034 62.8895 215.745 62.9795 215.514 63.1595C215.282 63.3396 215.108 63.5867 214.991 63.9011C214.874 64.2125 214.815 64.5669 214.815 64.9641C214.815 65.367 214.874 65.7199 214.991 66.0228C215.111 66.3228 215.287 66.5571 215.518 66.7257C215.752 66.8914 216.04 66.9743 216.38 66.9743ZM222.599 64.4283V68.2859H221.047V59.5077H222.565V62.8209H222.642C222.796 62.4495 223.035 62.1566 223.358 61.9423C223.683 61.7251 224.098 61.6165 224.601 61.6165C225.058 61.6165 225.457 61.7122 225.797 61.9037C226.137 62.0951 226.399 62.3752 226.585 62.7438C226.774 63.1124 226.868 63.5625 226.868 64.0939V68.2859H225.317V64.334C225.317 63.8911 225.202 63.5467 224.974 63.301C224.748 63.0524 224.431 62.9281 224.022 62.9281C223.748 62.9281 223.502 62.9881 223.285 63.1081C223.071 63.2253 222.902 63.3953 222.779 63.6182C222.659 63.8411 222.599 64.1111 222.599 64.4283ZM231.737 61.7022V62.9024H227.953V61.7022H231.737ZM228.887 60.1249H230.439V66.3056C230.439 66.5142 230.47 66.6743 230.533 66.7857C230.599 66.8943 230.684 66.9686 230.79 67.0086C230.896 67.0486 231.013 67.0686 231.142 67.0686C231.239 67.0686 231.327 67.0615 231.407 67.0472C231.49 67.0329 231.553 67.02 231.596 67.0086L231.857 68.2216C231.774 68.2502 231.656 68.2816 231.502 68.3159C231.35 68.3502 231.164 68.3702 230.944 68.3759C230.556 68.3873 230.206 68.3288 229.894 68.2002C229.583 68.0687 229.336 67.8658 229.153 67.5915C228.973 67.3172 228.884 66.9743 228.887 66.5628V60.1249Z" fill="#EAEAEA"/>
<rect x="180.377" y="83.3503" width="95.6552" height="51.2363" rx="5.36447" fill="#838383"/>
<g clip-path="url(#clip2_5109_86356)">
<rect x="184.771" y="89.1277" width="51.045" height="47.31" rx="4.02335" fill="white" fill-opacity="0.5"/>
</g>
<g clip-path="url(#clip3_5109_86356)">
<rect x="239.998" y="89.4805" width="27.4489" height="14.1403" rx="2.68223" fill="white" fill-opacity="0.5"/>
</g>
<g clip-path="url(#clip4_5109_86356)">
<rect x="239.553" y="107.003" width="27.4489" height="14.1403" rx="2.68223" fill="white" fill-opacity="0.5"/>
</g>
<g clip-path="url(#clip5_5109_86356)">
<rect x="239.553" y="124.878" width="27.4489" height="14.1403" rx="2.68223" fill="white" fill-opacity="0.5"/>
</g>
</g>
<rect x="172.622" y="45.8797" width="90.912" height="85.9321" rx="9.30523" stroke="#999999" stroke-width="2.51705"/>
<g clip-path="url(#clip6_5109_86356)">
<rect x="273.004" y="47.1382" width="88.395" height="83.415" rx="8.0467" fill="black"/>
<path d="M294.412 67.5485C292.384 71.0606 287.893 72.2639 284.381 70.2362C283.437 69.6923 282.625 68.944 282.007 68.0463C281.959 67.9768 281.928 67.8973 281.916 67.8139C281.904 67.7305 281.911 67.6454 281.937 67.5652C281.963 67.485 282.007 67.4118 282.065 67.3512C282.124 67.2907 282.196 67.2444 282.275 67.216C285.041 66.2263 286.522 65.0789 287.382 63.4381C288.286 61.7106 288.52 59.8188 287.888 57.2243C287.867 57.1409 287.867 57.0539 287.886 56.9702C287.905 56.8866 287.944 56.8086 287.999 56.7425C288.054 56.6765 288.123 56.6242 288.202 56.5898C288.281 56.5554 288.366 56.5399 288.452 56.5445C289.604 56.6065 290.726 56.9403 291.724 57.5187C295.236 59.5457 296.44 64.0364 294.411 67.5478L294.412 67.5485ZM288.357 63.949C287.439 65.7022 285.927 66.9583 283.352 67.9861C283.804 68.5022 284.338 68.9402 284.932 69.2826C285.642 69.6924 286.425 69.9584 287.238 70.0654C288.051 70.1724 288.876 70.1183 289.668 69.9062C290.46 69.6941 291.202 69.3281 291.852 68.8292C292.502 68.3302 293.048 67.7081 293.458 66.9983C293.868 66.2885 294.134 65.5049 294.241 64.6923C294.348 63.8797 294.294 63.0539 294.081 62.2622C293.869 61.4705 293.503 60.7283 293.004 60.0781C292.505 59.4278 291.883 58.8822 291.174 58.4723C290.539 58.1051 289.846 57.8526 289.124 57.7265C289.599 60.2108 289.293 62.1636 288.357 63.949Z" fill="white"/>
<path d="M305.887 68.3782H302.913V59.6H305.947C306.819 59.6 307.568 59.7757 308.193 60.1272C308.822 60.4758 309.305 60.9773 309.642 61.6316C309.979 62.286 310.148 63.0689 310.148 63.9805C310.148 64.8949 309.978 65.6807 309.638 66.3379C309.301 66.9951 308.813 67.4995 308.176 67.851C307.542 68.2024 306.779 68.3782 305.887 68.3782ZM304.503 67.0023H305.81C306.422 67.0023 306.932 66.8908 307.34 66.668C307.749 66.4422 308.056 66.1065 308.262 65.6607C308.468 65.2121 308.571 64.652 308.571 63.9805C308.571 63.309 308.468 62.7518 308.262 62.3089C308.056 61.8631 307.752 61.5302 307.349 61.3102C306.949 61.0873 306.452 60.9758 305.857 60.9758H304.503V67.0023ZM313.485 68.511C313.068 68.511 312.692 68.4368 312.357 68.2882C312.026 68.1367 311.763 67.9138 311.569 67.6195C311.377 67.3252 311.282 66.9623 311.282 66.5308C311.282 66.1593 311.35 65.8521 311.487 65.6093C311.624 65.3664 311.812 65.1721 312.049 65.0263C312.286 64.8806 312.553 64.7706 312.85 64.6963C313.15 64.6191 313.46 64.5634 313.78 64.5291C314.166 64.4891 314.479 64.4534 314.719 64.422C314.959 64.3877 315.133 64.3362 315.242 64.2677C315.354 64.1962 315.409 64.0862 315.409 63.9376V63.9119C315.409 63.589 315.314 63.339 315.122 63.1618C314.931 62.9847 314.655 62.8961 314.295 62.8961C313.915 62.8961 313.613 62.9789 313.39 63.1447C313.17 63.3104 313.022 63.5061 312.945 63.7319L311.496 63.5261C311.61 63.1261 311.799 62.7918 312.062 62.5232C312.325 62.2517 312.646 62.0488 313.026 61.9145C313.406 61.7774 313.826 61.7088 314.286 61.7088C314.603 61.7088 314.919 61.7459 315.233 61.8202C315.548 61.8945 315.835 62.0174 316.095 62.1888C316.355 62.3574 316.564 62.5875 316.721 62.8789C316.881 63.1704 316.961 63.5347 316.961 63.9719V68.3782H315.469V67.4738H315.418C315.324 67.6567 315.191 67.8281 315.019 67.9881C314.851 68.1453 314.638 68.2724 314.381 68.3696C314.126 68.4639 313.828 68.511 313.485 68.511ZM313.888 67.3709C314.199 67.3709 314.469 67.3095 314.698 67.1866C314.926 67.0609 315.102 66.8951 315.225 66.6894C315.351 66.4837 315.414 66.2593 315.414 66.0165V65.2406C315.365 65.2807 315.282 65.3178 315.165 65.3521C315.051 65.3864 314.922 65.4164 314.779 65.4421C314.636 65.4678 314.495 65.4907 314.355 65.5107C314.215 65.5307 314.093 65.5478 313.99 65.5621C313.759 65.5935 313.552 65.645 313.369 65.7164C313.186 65.7879 313.042 65.8879 312.936 66.0165C312.83 66.1422 312.777 66.3051 312.777 66.5051C312.777 66.7908 312.882 67.0066 313.09 67.1523C313.299 67.298 313.565 67.3709 313.888 67.3709ZM318.521 68.3782V61.7945H320.026V62.8918H320.094C320.214 62.5117 320.42 62.2188 320.711 62.0131C321.006 61.8045 321.341 61.7002 321.719 61.7002C321.804 61.7002 321.9 61.7045 322.006 61.7131C322.114 61.7188 322.204 61.7288 322.276 61.7431V63.1704C322.21 63.1475 322.106 63.1275 321.963 63.1104C321.823 63.0904 321.687 63.0804 321.556 63.0804C321.273 63.0804 321.018 63.1418 320.793 63.2647C320.57 63.3847 320.394 63.5519 320.266 63.7662C320.137 63.9805 320.073 64.2277 320.073 64.5077V68.3782H318.521ZM324.721 66.3122L324.717 64.4391H324.965L327.331 61.7945H329.144L326.234 65.0349H325.913L324.721 66.3122ZM323.307 68.3782V59.6H324.858V68.3782H323.307ZM327.439 68.3782L325.295 65.3821L326.341 64.2891L329.295 68.3782H327.439Z" fill="white"/>
<rect x="279.98" y="83.3503" width="95.6552" height="51.2363" rx="5.36447" fill="black"/>
<g clip-path="url(#clip7_5109_86356)">
<rect x="284.379" y="89.1277" width="51.045" height="47.31" rx="4.02335" fill="white" fill-opacity="0.2"/>
</g>
<g clip-path="url(#clip8_5109_86356)">
<rect x="339.156" y="89.1277" width="27.4489" height="14.1403" rx="2.68223" fill="white" fill-opacity="0.2"/>
</g>
<g clip-path="url(#clip9_5109_86356)">
<rect x="339.156" y="107.003" width="27.4489" height="14.1403" rx="2.68223" fill="white" fill-opacity="0.2"/>
</g>
<g clip-path="url(#clip10_5109_86356)">
<rect x="339.156" y="124.878" width="27.4489" height="14.1403" rx="2.68223" fill="white" fill-opacity="0.2"/>
</g>
</g>
<rect x="271.745" y="45.8797" width="90.912" height="85.9321" rx="9.30523" stroke="#2160FD" stroke-width="2.51705"/>
<rect x="144.507" y="-8.49319" width="247.986" height="158.459" rx="14.4332" stroke="url(#paint0_linear_5109_86356)" stroke-width="1.01363"/>
<rect x="19.3877" y="18.3877" width="161.225" height="147.285" rx="11.0416" fill="url(#paint1_linear_5109_86356)"/>
<path d="M42.6865 44.2393V36.8149H45.3075C45.7991 36.8149 46.2309 36.9079 46.603 37.094C46.975 37.28 47.264 37.5457 47.47 37.8912C47.6826 38.2367 47.7889 38.6419 47.7889 39.107C47.7889 39.5721 47.6826 39.9773 47.47 40.3228C47.264 40.6616 46.975 40.9274 46.603 41.12C46.2376 41.3061 45.8057 41.3991 45.3075 41.3991H43.6631V44.2393H42.6865ZM43.6631 40.5022H45.3373C45.6363 40.5022 45.8954 40.4457 46.1147 40.3328C46.3339 40.2198 46.5033 40.0571 46.6229 39.8445C46.7425 39.6319 46.8023 39.386 46.8023 39.107C46.8023 38.8213 46.7425 38.5755 46.6229 38.3696C46.5033 38.157 46.3339 37.9942 46.1147 37.8812C45.8954 37.7683 45.6363 37.7118 45.3373 37.7118H43.6631V40.5022ZM49 44.2393V38.8678H49.9069V39.8544L49.8072 39.7149C49.9334 39.4093 50.1261 39.1834 50.3852 39.0372C50.6443 38.8844 50.9599 38.808 51.3319 38.808H51.6608V39.685H51.1924C50.8137 39.685 50.5081 39.8046 50.2756 40.0438C50.0431 40.2763 49.9268 40.6085 49.9268 41.0403V44.2393H49ZM55.0352 44.3588C54.517 44.3588 54.0486 44.2393 53.6301 44.0001C53.2115 43.7543 52.8793 43.4188 52.6335 42.9936C52.3877 42.5684 52.2648 42.0867 52.2648 41.5486C52.2648 41.0104 52.3844 40.5321 52.6236 40.1135C52.8694 39.695 53.2016 39.3628 53.6201 39.117C54.0387 38.8712 54.5104 38.7482 55.0352 38.7482C55.5534 38.7482 56.0218 38.8712 56.4404 39.117C56.8589 39.3561 57.1878 39.685 57.4269 40.1036C57.6728 40.5221 57.7957 41.0038 57.7957 41.5486C57.7957 42.0933 57.6694 42.5783 57.417 43.0035C57.1645 43.4221 56.829 43.7543 56.4105 44.0001C55.9986 44.2393 55.5401 44.3588 55.0352 44.3588ZM55.0352 43.4619C55.3674 43.4619 55.6664 43.3789 55.9321 43.2128C56.2045 43.0467 56.4171 42.8175 56.5699 42.5252C56.7294 42.2329 56.8091 41.9073 56.8091 41.5486C56.8091 41.1832 56.7294 40.8609 56.5699 40.5819C56.4171 40.2962 56.2045 40.0703 55.9321 39.9042C55.6664 39.7315 55.3674 39.6451 55.0352 39.6451C54.6964 39.6451 54.3908 39.7315 54.1184 39.9042C53.8526 40.0703 53.64 40.2962 53.4806 40.5819C53.3211 40.8609 53.2414 41.1832 53.2414 41.5486C53.2414 41.9073 53.3211 42.2329 53.4806 42.5252C53.64 42.8175 53.8526 43.0467 54.1184 43.2128C54.3908 43.3789 54.6964 43.4619 55.0352 43.4619ZM61.446 44.3588C60.9411 44.3588 60.486 44.2359 60.0807 43.9901C59.6821 43.7443 59.3665 43.4088 59.134 42.9836C58.9015 42.5584 58.7852 42.0834 58.7852 41.5585C58.7852 41.0204 58.9015 40.542 59.134 40.1235C59.3665 39.6983 59.6821 39.3628 60.0807 39.117C60.486 38.8712 60.9411 38.7482 61.446 38.7482C61.8911 38.7482 62.2864 38.8446 62.6319 39.0372C62.9774 39.2233 63.2498 39.4757 63.4491 39.7946L63.2996 40.0238V36.6953H64.2364V44.2393H63.3295V43.0932L63.4491 43.2527C63.2631 43.6048 62.9907 43.8772 62.6319 44.0698C62.2798 44.2625 61.8845 44.3588 61.446 44.3588ZM61.5257 43.4619C61.8646 43.4619 62.1669 43.3789 62.4326 43.2128C62.6984 43.0467 62.9076 42.8208 63.0604 42.5352C63.2199 42.2428 63.2996 41.9173 63.2996 41.5585C63.2996 41.1931 63.2199 40.8676 63.0604 40.5819C62.9076 40.2896 62.6984 40.0604 62.4326 39.8943C62.1669 39.7282 61.8646 39.6451 61.5257 39.6451C61.1936 39.6451 60.8913 39.7315 60.6189 39.9042C60.3531 40.0703 60.1439 40.2962 59.991 40.5819C59.8382 40.8609 59.7618 41.1865 59.7618 41.5585C59.7618 41.9173 59.8382 42.2428 59.991 42.5352C60.1439 42.8208 60.3531 43.0467 60.6189 43.2128C60.8846 43.3789 61.1869 43.4619 61.5257 43.4619ZM67.5743 44.3588C67.1889 44.3588 66.8402 44.2692 66.5279 44.0898C66.2223 43.9104 65.9831 43.6613 65.8104 43.3424C65.6443 43.0168 65.5612 42.6448 65.5612 42.2262V38.8678H66.488V42.1266C66.488 42.3923 66.5412 42.6248 66.6475 42.8242C66.7604 43.0235 66.9132 43.1796 67.1059 43.2925C67.3052 43.4055 67.5311 43.4619 67.7836 43.4619C68.036 43.4619 68.2586 43.4055 68.4512 43.2925C68.6506 43.1796 68.8034 43.0168 68.9097 42.8042C69.0226 42.5916 69.0791 42.3392 69.0791 42.0468V38.8678H70.0158V44.2393H69.109V43.1929L69.2585 43.2826C69.1322 43.6214 68.9163 43.8871 68.6107 44.0798C68.3117 44.2658 67.9663 44.3588 67.5743 44.3588ZM73.943 44.3588C73.4182 44.3588 72.9498 44.2359 72.5379 43.9901C72.1326 43.7443 71.8137 43.4088 71.5812 42.9836C71.3487 42.5584 71.2324 42.0801 71.2324 41.5486C71.2324 41.0104 71.3487 40.5321 71.5812 40.1135C71.8137 39.695 72.1326 39.3628 72.5379 39.117C72.9498 38.8712 73.4182 38.7482 73.943 38.7482C74.2952 38.7482 74.624 38.8114 74.9296 38.9376C75.2352 39.0638 75.5043 39.2332 75.7368 39.4458C75.9694 39.6584 76.1388 39.9076 76.2451 40.1932L75.4179 40.5919C75.2917 40.3128 75.099 40.087 74.8399 39.9142C74.5808 39.7348 74.2819 39.6451 73.943 39.6451C73.6175 39.6451 73.3219 39.7282 73.0561 39.8943C72.797 40.0604 72.591 40.2863 72.4382 40.5719C72.2854 40.8576 72.209 41.1865 72.209 41.5585C72.209 41.9173 72.2854 42.2428 72.4382 42.5352C72.591 42.8208 72.797 43.0467 73.0561 43.2128C73.3219 43.3789 73.6175 43.4619 73.943 43.4619C74.2819 43.4619 74.5808 43.3756 74.8399 43.2028C75.099 43.0235 75.2917 42.7876 75.4179 42.4953L76.2451 42.9138C76.1388 43.1929 75.9694 43.442 75.7368 43.6613C75.5043 43.8739 75.2352 44.0433 74.9296 44.1695C74.624 44.2957 74.2952 44.3588 73.943 44.3588ZM79.6387 44.2991C79.1139 44.2991 78.7086 44.1496 78.4229 43.8506C78.1439 43.5516 78.0044 43.1298 78.0044 42.585V39.7548H77.0278V38.8678H77.2271C77.4662 38.8678 77.6556 38.7948 77.7951 38.6486C77.9346 38.5024 78.0044 38.3098 78.0044 38.0706V37.6321H78.9312V38.8678H80.137V39.7548H78.9312V42.5551C78.9312 42.7345 78.9578 42.8906 79.0109 43.0235C79.0707 43.1563 79.167 43.2626 79.2999 43.3424C79.4328 43.4154 79.6088 43.452 79.8281 43.452C79.8746 43.452 79.9311 43.4487 79.9975 43.442C80.0706 43.4354 80.137 43.4287 80.1968 43.4221V44.2393C80.1104 44.2592 80.0141 44.2725 79.9078 44.2791C79.8015 44.2924 79.7118 44.2991 79.6387 44.2991Z" fill="#ADADAD"/>
<rect x="42.1708" y="56.5163" width="115.467" height="27.5942" rx="7.76178" fill="#303030"/>
<path d="M72.6382 75.3271L69.8972 67.736H70.9671L73.2903 74.4101H73.0764L75.3996 67.736H76.4695L73.7387 75.3271H72.6382ZM77.3151 75.3271V69.835H78.2627V75.3271H77.3151ZM77.3151 68.9587V67.736H78.2627V68.9587H77.3151ZM82.2295 75.4494C81.7133 75.4494 81.248 75.3238 80.8336 75.0724C80.426 74.8211 80.1033 74.478 79.8656 74.0433C79.6278 73.6085 79.5089 73.1228 79.5089 72.5862C79.5089 72.0359 79.6278 71.5469 79.8656 71.1189C80.1033 70.6841 80.426 70.3411 80.8336 70.0898C81.248 69.8384 81.7133 69.7127 82.2295 69.7127C82.6847 69.7127 83.0889 69.8112 83.4421 70.0082C83.7953 70.1984 84.0738 70.4566 84.2776 70.7826L84.1248 71.017V67.6137H85.0826V75.3271H84.1554V74.1554L84.2776 74.3184C84.0874 74.6784 83.8089 74.9569 83.4421 75.1539C83.0821 75.3509 82.6779 75.4494 82.2295 75.4494ZM82.3111 74.5324C82.6575 74.5324 82.9666 74.4475 83.2383 74.2776C83.51 74.1078 83.724 73.8768 83.8802 73.5847C84.0433 73.2859 84.1248 72.953 84.1248 72.5862C84.1248 72.2126 84.0433 71.8797 83.8802 71.5876C83.724 71.2887 83.51 71.0544 83.2383 70.8845C82.9666 70.7147 82.6575 70.6298 82.3111 70.6298C81.9714 70.6298 81.6623 70.7181 81.3838 70.8947C81.1121 71.0645 80.8981 71.2955 80.7419 71.5876C80.5856 71.8729 80.5075 72.2058 80.5075 72.5862C80.5075 72.953 80.5856 73.2859 80.7419 73.5847C80.8981 73.8768 81.1121 74.1078 81.3838 74.2776C81.6555 74.4475 81.9646 74.5324 82.3111 74.5324ZM89.0763 75.4494C88.5465 75.4494 88.0743 75.3238 87.66 75.0724C87.2456 74.8211 86.9195 74.478 86.6818 74.0433C86.444 73.6017 86.3252 73.1092 86.3252 72.5658C86.3252 72.0156 86.4406 71.5265 86.6716 71.0985C86.9094 70.6706 87.2286 70.3343 87.6294 70.0898C88.037 69.8384 88.4921 69.7127 88.9948 69.7127C89.4024 69.7127 89.7624 69.7875 90.0749 69.9369C90.3942 70.0796 90.6625 70.2766 90.8799 70.5279C91.104 70.7724 91.2738 71.0544 91.3893 71.3736C91.5116 71.6861 91.5727 72.0122 91.5727 72.3518C91.5727 72.4265 91.5659 72.5115 91.5524 72.6066C91.5456 72.6949 91.5354 72.7798 91.5218 72.8613H87.018V72.0461H90.9716L90.5232 72.413C90.5844 72.0597 90.5504 71.7438 90.4213 71.4653C90.2923 71.1868 90.1021 70.966 89.8507 70.803C89.5994 70.64 89.3141 70.5585 88.9948 70.5585C88.6755 70.5585 88.3834 70.64 88.1185 70.803C87.8536 70.966 87.6464 71.2004 87.4969 71.5061C87.3543 71.805 87.2966 72.1616 87.3237 72.576C87.2966 72.9768 87.3577 73.33 87.5071 73.6357C87.6634 73.9346 87.8807 74.1689 88.1593 74.3388C88.4446 74.5018 88.7536 74.5833 89.0865 74.5833C89.4533 74.5833 89.7624 74.4984 90.0137 74.3286C90.2651 74.1588 90.4689 73.9414 90.6251 73.6765L91.4199 74.084C91.3112 74.3354 91.1414 74.5663 90.9104 74.7769C90.6863 74.9807 90.4179 75.1437 90.1055 75.266C89.7998 75.3883 89.4567 75.4494 89.0763 75.4494ZM95.4168 75.4494C94.8869 75.4494 94.408 75.3271 93.9801 75.0826C93.5521 74.8313 93.2125 74.4882 92.9611 74.0535C92.7098 73.6187 92.5841 73.1262 92.5841 72.576C92.5841 72.0258 92.7064 71.5367 92.9509 71.1087C93.2023 70.6807 93.5419 70.3411 93.9699 70.0898C94.3979 69.8384 94.8802 69.7127 95.4168 69.7127C95.9467 69.7127 96.4256 69.8384 96.8535 70.0898C97.2815 70.3343 97.6177 70.6706 97.8623 71.0985C98.1136 71.5265 98.2393 72.019 98.2393 72.576C98.2393 73.133 98.1102 73.6289 97.8521 74.0637C97.594 74.4916 97.2509 74.8313 96.8229 75.0826C96.4018 75.3271 95.9331 75.4494 95.4168 75.4494ZM95.4168 74.5324C95.7564 74.5324 96.0621 74.4475 96.3339 74.2776C96.6124 74.1078 96.8297 73.8734 96.986 73.5746C97.149 73.2757 97.2305 72.9428 97.2305 72.576C97.2305 72.2024 97.149 71.8729 96.986 71.5876C96.8297 71.2955 96.6124 71.0645 96.3339 70.8947C96.0621 70.7181 95.7564 70.6298 95.4168 70.6298C95.0704 70.6298 94.7579 70.7181 94.4794 70.8947C94.2076 71.0645 93.9903 71.2955 93.8272 71.5876C93.6642 71.8729 93.5827 72.2024 93.5827 72.576C93.5827 72.9428 93.6642 73.2757 93.8272 73.5746C93.9903 73.8734 94.2076 74.1078 94.4794 74.2776C94.7579 74.4475 95.0704 74.5324 95.4168 74.5324Z" fill="#B9B9B9"/>
<rect x="49.1692" y="65.9647" width="9.98047" height="9.98047" rx="1.40214" stroke="#A9A9A9" stroke-width="0.783806"/>
<rect x="42.1708" y="56.5163" width="115.467" height="27.5942" rx="7.76178" stroke="#2D2D2D" stroke-width="0.622846"/>
<rect x="42.1708" y="89.716" width="115.467" height="27.5942" rx="7.76178" fill="#303030"/>
<path d="M70.6309 108.526V100.935H71.6295V107.609H74.9614V108.526H70.6309ZM75.9718 108.526V103.034H76.9194V108.526H75.9718ZM75.9718 102.158V100.935H76.9194V102.158H75.9718ZM79.9182 108.526L77.7682 103.034H78.8279L80.5499 107.68H80.1831L81.9153 103.034H82.975L80.8149 108.526H79.9182ZM86.2503 108.648C85.7205 108.648 85.2484 108.523 84.834 108.271C84.4196 108.02 84.0936 107.677 83.8558 107.242C83.618 106.801 83.4992 106.308 83.4992 105.765C83.4992 105.215 83.6146 104.725 83.8456 104.297C84.0834 103.87 84.4026 103.533 84.8034 103.289C85.211 103.037 85.6661 102.912 86.1688 102.912C86.5764 102.912 86.9364 102.986 87.2489 103.136C87.5682 103.279 87.8365 103.476 88.0539 103.727C88.278 103.971 88.4479 104.253 88.5633 104.573C88.6856 104.885 88.7467 105.211 88.7467 105.551C88.7467 105.626 88.74 105.71 88.7264 105.806C88.7196 105.894 88.7094 105.979 88.6958 106.06H84.192V105.245H88.1456L87.6972 105.612C87.7584 105.259 87.7244 104.943 87.5953 104.664C87.4663 104.386 87.2761 104.165 87.0247 104.002C86.7734 103.839 86.4881 103.757 86.1688 103.757C85.8495 103.757 85.5574 103.839 85.2925 104.002C85.0276 104.165 84.8204 104.399 84.671 104.705C84.5283 105.004 84.4706 105.361 84.4977 105.775C84.4706 106.176 84.5317 106.529 84.6811 106.835C84.8374 107.134 85.0548 107.368 85.3333 107.538C85.6186 107.701 85.9277 107.782 86.2605 107.782C86.6273 107.782 86.9364 107.697 87.1878 107.528C87.4391 107.358 87.6429 107.14 87.7991 106.875L88.5939 107.283C88.4852 107.534 88.3154 107.765 88.0844 107.976C87.8603 108.18 87.5919 108.343 87.2795 108.465C86.9738 108.587 86.6307 108.648 86.2503 108.648ZM94.4642 108.648C93.9819 108.648 93.5403 108.56 93.1395 108.383C92.7387 108.2 92.3991 107.952 92.1206 107.64C91.8421 107.327 91.6417 106.977 91.5194 106.59L92.3855 106.233C92.5689 106.723 92.8406 107.1 93.2007 107.365C93.5675 107.623 93.9954 107.752 94.4845 107.752C94.7834 107.752 95.045 107.704 95.2691 107.609C95.4933 107.514 95.6665 107.382 95.7888 107.212C95.9179 107.035 95.9824 106.831 95.9824 106.6C95.9824 106.281 95.8907 106.03 95.7073 105.846C95.5307 105.656 95.2691 105.513 94.9227 105.418L93.5267 104.99C92.9765 104.821 92.5553 104.552 92.2632 104.185C91.9711 103.819 91.8251 103.397 91.8251 102.922C91.8251 102.508 91.9236 102.144 92.1206 101.832C92.3244 101.512 92.6029 101.264 92.9561 101.088C93.3161 100.904 93.7237 100.813 94.1789 100.813C94.634 100.813 95.045 100.894 95.4118 101.057C95.7854 101.22 96.1013 101.441 96.3594 101.72C96.6175 101.991 96.8077 102.304 96.93 102.657L96.0741 103.014C95.9111 102.586 95.6665 102.263 95.3405 102.046C95.0144 101.821 94.6306 101.709 94.189 101.709C93.9173 101.709 93.6762 101.757 93.4656 101.852C93.2618 101.94 93.1022 102.073 92.9867 102.249C92.878 102.419 92.8237 102.623 92.8237 102.861C92.8237 103.139 92.912 103.387 93.0886 103.605C93.2652 103.822 93.5335 103.988 93.8936 104.104L95.1672 104.481C95.765 104.664 96.2168 104.926 96.5224 105.265C96.8281 105.605 96.981 106.026 96.981 106.529C96.981 106.943 96.8723 107.31 96.6549 107.629C96.4443 107.949 96.1488 108.2 95.7684 108.383C95.3948 108.56 94.9601 108.648 94.4642 108.648ZM100.562 108.587C100.026 108.587 99.6114 108.434 99.3193 108.129C99.034 107.823 98.8913 107.392 98.8913 106.835V103.941H97.8928V103.034H98.0966C98.3411 103.034 98.5347 102.959 98.6774 102.81C98.82 102.66 98.8913 102.463 98.8913 102.219V101.77H99.839V103.034H101.072V103.941H99.839V106.804C99.839 106.988 99.8661 107.147 99.9205 107.283C99.9816 107.419 100.08 107.528 100.216 107.609C100.352 107.684 100.532 107.721 100.756 107.721C100.804 107.721 100.861 107.718 100.929 107.711C101.004 107.704 101.072 107.697 101.133 107.691V108.526C101.045 108.547 100.946 108.56 100.838 108.567C100.729 108.58 100.637 108.587 100.562 108.587ZM102.371 108.526V103.034H103.298V104.043L103.196 103.9C103.325 103.588 103.522 103.357 103.787 103.207C104.052 103.051 104.375 102.973 104.755 102.973H105.091V103.87H104.613C104.225 103.87 103.913 103.992 103.675 104.236C103.437 104.474 103.319 104.814 103.319 105.255V108.526H102.371ZM108.46 108.648C107.93 108.648 107.458 108.523 107.044 108.271C106.63 108.02 106.303 107.677 106.066 107.242C105.828 106.801 105.709 106.308 105.709 105.765C105.709 105.215 105.825 104.725 106.055 104.297C106.293 103.87 106.613 103.533 107.013 103.289C107.421 103.037 107.876 102.912 108.379 102.912C108.786 102.912 109.146 102.986 109.459 103.136C109.778 103.279 110.046 103.476 110.264 103.727C110.488 103.971 110.658 104.253 110.773 104.573C110.895 104.885 110.957 105.211 110.957 105.551C110.957 105.626 110.95 105.71 110.936 105.806C110.929 105.894 110.919 105.979 110.906 106.06H106.402V105.245H110.355L109.907 105.612C109.968 105.259 109.934 104.943 109.805 104.664C109.676 104.386 109.486 104.165 109.235 104.002C108.983 103.839 108.698 103.757 108.379 103.757C108.059 103.757 107.767 103.839 107.502 104.002C107.237 104.165 107.03 104.399 106.881 104.705C106.738 105.004 106.68 105.361 106.708 105.775C106.68 106.176 106.742 106.529 106.891 106.835C107.047 107.134 107.265 107.368 107.543 107.538C107.828 107.701 108.138 107.782 108.47 107.782C108.837 107.782 109.146 107.697 109.398 107.528C109.649 107.358 109.853 107.14 110.009 106.875L110.804 107.283C110.695 107.534 110.525 107.765 110.294 107.976C110.07 108.18 109.802 108.343 109.489 108.465C109.184 108.587 108.841 108.648 108.46 108.648ZM113.732 108.648C113.372 108.648 113.053 108.584 112.775 108.455C112.503 108.319 112.289 108.136 112.133 107.905C111.976 107.667 111.898 107.395 111.898 107.089C111.898 106.797 111.96 106.536 112.082 106.305C112.211 106.067 112.408 105.867 112.673 105.704C112.944 105.541 113.284 105.425 113.692 105.357L115.73 105.021V105.816L113.906 106.121C113.552 106.183 113.294 106.295 113.131 106.458C112.975 106.621 112.897 106.821 112.897 107.059C112.897 107.283 112.985 107.47 113.162 107.619C113.345 107.769 113.573 107.843 113.845 107.843C114.191 107.843 114.49 107.772 114.741 107.629C114.999 107.48 115.2 107.28 115.342 107.028C115.492 106.777 115.567 106.498 115.567 106.193V104.797C115.567 104.498 115.454 104.257 115.23 104.073C115.013 103.883 114.724 103.788 114.364 103.788C114.052 103.788 113.773 103.87 113.529 104.033C113.291 104.189 113.114 104.399 112.999 104.664L112.173 104.236C112.275 103.985 112.438 103.761 112.663 103.564C112.887 103.36 113.148 103.2 113.447 103.085C113.746 102.969 114.059 102.912 114.385 102.912C114.806 102.912 115.176 102.993 115.495 103.156C115.815 103.313 116.062 103.533 116.239 103.819C116.422 104.097 116.514 104.423 116.514 104.797V108.526H115.587V107.487L115.76 107.548C115.645 107.765 115.488 107.956 115.291 108.119C115.094 108.282 114.864 108.411 114.599 108.506C114.334 108.601 114.045 108.648 113.732 108.648ZM117.983 108.526V103.034H118.911V104.155L118.778 103.982C118.914 103.635 119.131 103.37 119.43 103.187C119.729 103.003 120.066 102.912 120.439 102.912C120.867 102.912 121.251 103.031 121.591 103.268C121.937 103.506 122.175 103.819 122.304 104.206L122.039 104.216C122.182 103.788 122.423 103.465 122.762 103.248C123.102 103.024 123.479 102.912 123.893 102.912C124.274 102.912 124.617 103 124.923 103.177C125.235 103.353 125.483 103.598 125.666 103.91C125.85 104.223 125.941 104.576 125.941 104.97V108.526H124.984V105.276C124.984 104.97 124.929 104.712 124.821 104.501C124.712 104.291 124.562 104.128 124.372 104.012C124.189 103.89 123.971 103.829 123.72 103.829C123.476 103.829 123.255 103.89 123.058 104.012C122.868 104.128 122.715 104.294 122.599 104.511C122.491 104.722 122.436 104.977 122.436 105.276V108.526H121.478V105.276C121.478 104.97 121.424 104.712 121.315 104.501C121.207 104.291 121.057 104.128 120.867 104.012C120.684 103.89 120.466 103.829 120.215 103.829C119.97 103.829 119.75 103.89 119.553 104.012C119.362 104.128 119.21 104.294 119.094 104.511C118.985 104.722 118.931 104.977 118.931 105.276V108.526H117.983Z" fill="#B9B9B9"/>
<rect x="49.1692" y="99.1641" width="9.98047" height="9.98047" rx="1.40214" stroke="#A9A9A9" stroke-width="0.783806"/>
<rect x="42.1708" y="89.716" width="115.467" height="27.5942" rx="7.76178" stroke="#2D2D2D" stroke-width="0.622846"/>
<g clip-path="url(#clip11_5109_86356)">
<rect x="41.8594" y="122.604" width="116.09" height="28.217" rx="8.07321" fill="#2160FD"/>
<path d="M41.8594 124.166C41.8594 123.303 42.5585 122.604 43.4209 122.604H65.2817V170.49H43.4209C42.5585 170.49 41.8594 169.791 41.8594 168.928V124.166Z" fill="#2160FD"/>
<path d="M74.1094 141.779C73.5728 141.779 73.0735 141.68 72.6115 141.483C72.1564 141.286 71.759 141.014 71.4194 140.668C71.0865 140.315 70.825 139.9 70.6348 139.425C70.4446 138.949 70.3495 138.426 70.3495 137.856C70.3495 137.292 70.4412 136.772 70.6246 136.297C70.8148 135.814 71.0797 135.4 71.4194 135.053C71.759 134.7 72.1564 134.429 72.6115 134.238C73.0667 134.041 73.566 133.943 74.1094 133.943C74.646 133.943 75.125 134.035 75.5461 134.218C75.9741 134.401 76.3341 134.642 76.6262 134.941C76.9183 135.233 77.1289 135.553 77.258 135.899L76.1779 136.409C76.0148 136.001 75.7533 135.672 75.3933 135.42C75.04 135.162 74.6121 135.033 74.1094 135.033C73.6067 135.033 73.1618 135.152 72.7746 135.39C72.3874 135.627 72.0851 135.957 71.8677 136.378C71.6571 136.799 71.5518 137.292 71.5518 137.856C71.5518 138.419 71.6571 138.915 71.8677 139.343C72.0851 139.764 72.3874 140.094 72.7746 140.332C73.1618 140.563 73.6067 140.678 74.1094 140.678C74.6121 140.678 75.04 140.552 75.3933 140.301C75.7533 140.05 76.0148 139.72 76.1779 139.313L77.258 139.822C77.1289 140.162 76.9183 140.481 76.6262 140.78C76.3341 141.079 75.9741 141.32 75.5461 141.503C75.125 141.687 74.646 141.779 74.1094 141.779ZM78.3823 141.656V133.943H79.5337V137.224L79.3503 137.081C79.4862 136.735 79.7035 136.473 80.0024 136.297C80.3013 136.113 80.6478 136.021 81.0418 136.021C81.4493 136.021 81.8094 136.11 82.1218 136.286C82.4343 136.463 82.6789 136.708 82.8555 137.02C83.0321 137.333 83.1204 137.689 83.1204 138.09V141.656H81.9792V138.406C81.9792 138.127 81.9248 137.893 81.8162 137.703C81.7143 137.506 81.5716 137.356 81.3882 137.254C81.2048 137.146 80.9942 137.091 80.7564 137.091C80.5255 137.091 80.3149 137.146 80.1247 137.254C79.9413 137.356 79.7952 137.506 79.6866 137.703C79.5847 137.9 79.5337 138.134 79.5337 138.406V141.656H78.3823ZM86.0034 141.779C85.6298 141.779 85.3003 141.714 85.015 141.585C84.7365 141.449 84.5191 141.266 84.3629 141.035C84.2066 140.797 84.1285 140.518 84.1285 140.199C84.1285 139.9 84.1931 139.632 84.3221 139.394C84.458 139.156 84.6652 138.956 84.9437 138.793C85.2222 138.63 85.572 138.514 85.9932 138.447L87.9088 138.131V139.038L86.2174 139.333C85.9117 139.387 85.6875 139.486 85.5449 139.629C85.4022 139.764 85.3309 139.941 85.3309 140.158C85.3309 140.369 85.409 140.542 85.5652 140.678C85.7283 140.807 85.9355 140.872 86.1868 140.872C86.4993 140.872 86.771 140.804 87.002 140.668C87.2397 140.532 87.4231 140.352 87.5522 140.128C87.6813 139.897 87.7458 139.642 87.7458 139.364V137.947C87.7458 137.676 87.6439 137.455 87.4401 137.285C87.2431 137.108 86.9782 137.02 86.6453 137.02C86.3396 137.02 86.0713 137.102 85.8404 137.265C85.6162 137.421 85.4498 137.625 85.3411 137.876L84.3833 137.397C84.4852 137.125 84.6516 136.888 84.8826 136.684C85.1135 136.473 85.3818 136.31 85.6875 136.195C86 136.079 86.3295 136.021 86.6759 136.021C87.1107 136.021 87.4945 136.103 87.8273 136.266C88.167 136.429 88.4285 136.657 88.6119 136.949C88.8021 137.234 88.8972 137.567 88.8972 137.947V141.656H87.7967V140.658L88.0311 140.688C87.902 140.912 87.7356 141.106 87.5318 141.269C87.3348 141.432 87.1073 141.558 86.8491 141.646C86.5978 141.734 86.3159 141.779 86.0034 141.779ZM92.5283 141.717C91.9509 141.717 91.5026 141.554 91.1833 141.228C90.864 140.902 90.7044 140.444 90.7044 139.853V137.183H89.7364V136.144H89.8893C90.1474 136.144 90.3478 136.069 90.4904 135.92C90.6331 135.77 90.7044 135.566 90.7044 135.308V134.88H91.8558V136.144H93.1091V137.183H91.8558V139.802C91.8558 139.992 91.8864 140.155 91.9475 140.291C92.0087 140.42 92.1072 140.522 92.243 140.597C92.3789 140.664 92.5555 140.698 92.7729 140.698C92.8272 140.698 92.8884 140.695 92.9563 140.688C93.0242 140.681 93.0887 140.675 93.1499 140.668V141.656C93.0548 141.67 92.9495 141.683 92.834 141.697C92.7185 141.711 92.6166 141.717 92.5283 141.717Z" fill="white"/>
<rect x="48.7812" y="131.902" width="10.7643" height="10.7643" rx="1.79405" fill="white"/>
<path d="M57.18 135.161C57.3435 135.32 57.3435 135.579 57.18 135.738L53.4125 139.407C53.249 139.567 52.984 139.567 52.8205 139.407L51.146 137.776C50.9826 137.617 50.9826 137.359 51.146 137.2C51.3095 137.041 51.5746 137.041 51.7381 137.2L53.1165 138.542L56.588 135.161C56.7515 135.002 57.0165 135.002 57.18 135.161Z" fill="#2160FD"/>
</g>
<rect x="42.1196" y="122.865" width="115.569" height="27.6965" rx="7.81296" stroke="#2160FD" stroke-width="0.520495"/>
<rect x="19.3877" y="18.3877" width="161.225" height="147.285" rx="11.0416" stroke="url(#paint2_linear_5109_86356)" stroke-width="0.775443"/>
</g>
<defs>
<linearGradient id="paint0_linear_5109_86356" x1="268.5" y1="-9" x2="268.5" y2="150.473" gradientUnits="userSpaceOnUse">
<stop stop-opacity="0"/>
<stop offset="0.966119" stop-color="#424242"/>
</linearGradient>
<linearGradient id="paint1_linear_5109_86356" x1="100" y1="18" x2="100" y2="172.122" gradientUnits="userSpaceOnUse">
<stop/>
<stop offset="1" stop-color="#112148"/>
</linearGradient>
<linearGradient id="paint2_linear_5109_86356" x1="100" y1="18" x2="100" y2="166.06" gradientUnits="userSpaceOnUse">
<stop stop-color="#5E5E5E" stop-opacity="0"/>
<stop offset="0.40365" stop-color="#727070" stop-opacity="0.59635"/>
<stop offset="0.990185" stop-color="#515151"/>
</linearGradient>
<clipPath id="clip0_5109_86356">
<rect width="344" height="177" fill="white"/>
</clipPath>
<clipPath id="clip1_5109_86356">
<rect x="173.881" y="47.1382" width="88.395" height="83.415" rx="8.0467" fill="white"/>
</clipPath>
<clipPath id="clip2_5109_86356">
<rect x="184.771" y="89.1277" width="51.045" height="47.31" rx="4.02335" fill="white"/>
</clipPath>
<clipPath id="clip3_5109_86356">
<rect x="239.998" y="89.4805" width="27.4489" height="14.1403" rx="2.68223" fill="white"/>
</clipPath>
<clipPath id="clip4_5109_86356">
<rect x="239.553" y="107.003" width="27.4489" height="14.1403" rx="2.68223" fill="white"/>
</clipPath>
<clipPath id="clip5_5109_86356">
<rect x="239.553" y="124.878" width="27.4489" height="14.1403" rx="2.68223" fill="white"/>
</clipPath>
<clipPath id="clip6_5109_86356">
<rect x="273.004" y="47.1382" width="88.395" height="83.415" rx="8.0467" fill="white"/>
</clipPath>
<clipPath id="clip7_5109_86356">
<rect x="284.379" y="89.1277" width="51.045" height="47.31" rx="4.02335" fill="white"/>
</clipPath>
<clipPath id="clip8_5109_86356">
<rect x="339.156" y="89.1277" width="27.4489" height="14.1403" rx="2.68223" fill="white"/>
</clipPath>
<clipPath id="clip9_5109_86356">
<rect x="339.156" y="107.003" width="27.4489" height="14.1403" rx="2.68223" fill="white"/>
</clipPath>
<clipPath id="clip10_5109_86356">
<rect x="339.156" y="124.878" width="27.4489" height="14.1403" rx="2.68223" fill="white"/>
</clipPath>
<clipPath id="clip11_5109_86356">
<rect x="41.8594" y="122.604" width="116.09" height="28.217" rx="8.07321" fill="white"/>
</clipPath>
</defs>
</svg>
