<svg width="24" height="24" viewBox="0 0 24 24" fill="none" xmlns="http://www.w3.org/2000/svg">
<g clip-path="url(#clip0_14035_23655)">
<path d="M12.8461 10.8245V10.7871C12.8383 10.7997 12.83 10.8124 12.8218 10.8245H12.8461Z" fill="#ACB8C7"/>
<path d="M22.1666 0H1.71379C0.734848 0 -0.059082 0.770115 -0.059082 1.71925V22.2812C-0.059082 23.2299 0.734848 24 1.71379 24H22.1666C23.147 24 23.9409 23.2294 23.9409 22.2812V1.71925C23.9409 0.769633 23.1465 0 22.1666 0ZM7.21546 20.091H3.59057V9.25393H7.21546V20.091ZM5.40326 7.77353H5.37898C4.16307 7.77353 3.37643 6.94117 3.37643 5.90132C3.37643 4.83831 4.18735 4.02911 5.42705 4.02911C6.66723 4.02911 7.43008 4.83831 7.45436 5.90132C7.45436 6.94117 6.66675 7.77353 5.40326 7.77353ZM20.2869 20.091H16.662V14.292C16.662 12.8357 16.1376 11.8417 14.826 11.8417C13.8247 11.8417 13.2284 12.512 12.9657 13.1595C12.8701 13.3906 12.8468 13.7139 12.8468 14.0382V20.0906H9.22189C9.22189 20.0906 9.26948 10.2692 9.22189 9.25345H12.8468V10.7874C13.3285 10.0491 14.1899 8.99771 16.1143 8.99771C18.499 8.99771 20.2874 10.5471 20.2874 13.8761L20.2869 20.091Z" fill="#ACB8C7"/>
</g>
<defs>
<clipPath id="clip0_14035_23655">
<rect width="24" height="24" fill="white"/>
</clipPath>
</defs>
</svg>
